<svg xmlns="http://www.w3.org/2000/svg" width="512" height="512" viewBox="0 0 512 512" fill="none">
  <defs>
    <linearGradient id="g" x1="0" y1="0" x2="1" y2="1">
      <stop offset="0" stop-color="#7A6BFF"></stop>
      <stop offset="1" stop-color="#3A2ED0"></stop>
    </linearGradient>
    <clipPath id="sq"><path d="M256 0 C 78 0 0 78 0 256 C 0 434 78 512 256 512 C 434 512 512 434 512 256 C 512 78 434 0 256 0 Z"></path></clipPath>
  </defs>
  <path d="M256 0 C 78 0 0 78 0 256 C 0 434 78 512 256 512 C 434 512 512 434 512 256 C 512 78 434 0 256 0 Z" fill="url(#g)"></path>
  <g clip-path="url(#sq)">
    <rect x="168" y="208" width="176" height="176" rx="40" fill="rgba(255,255,255,0.28)"></rect>
    <rect x="200" y="176" width="176" height="176" rx="40" fill="rgba(255,255,255,0.5)"></rect>
    <rect x="168" y="144" width="176" height="176" rx="40" fill="#FFFFFF"></rect>
    <path d="M300 168 L214 288 L246 288 L332 168 Z" fill="#6D5EF8"></path>
  </g>
</svg>